<?xml version="1.0" standalone="no"?>
<!DOCTYPE svg PUBLIC "-//W3C//DTD SVG 20010904//EN"
 "http://www.w3.org/TR/2001/REC-SVG-20010904/DTD/svg10.dtd">
<svg version="1.0" xmlns="http://www.w3.org/2000/svg"
 width="600.000000pt" height="600.000000pt" viewBox="0 0 600.000000 600.000000"
 preserveAspectRatio="xMidYMid meet">
<metadata>
Created by potrace 1.16, written by Peter Selinger 2001-2019
</metadata>
<g transform="translate(0.000000,600.000000) scale(0.100000,-0.100000)"
fill="#000000" stroke="none">
<path d="M2863 4981 c-246 -512 -510 -1065 -551 -1151 -22 -47 -102 -213 -177
-370 -151 -313 -325 -681 -325 -687 0 -2 118 -129 263 -282 144 -153 381 -406
527 -562 146 -156 295 -315 333 -354 l67 -70 53 55 c28 31 169 181 312 335
143 153 377 403 519 554 143 152 270 288 283 302 l23 26 -79 164 c-89 184
-399 833 -469 979 -137 290 -149 317 -137 317 8 0 11 -7 7 -15 -3 -10 -1 -13
6 -8 6 3 14 1 18 -5 5 -8 3 -9 -6 -4 -10 6 -12 4 -7 -9 4 -10 7 -20 7 -22 0
-3 4 -2 10 1 6 4 7 -1 3 -11 -4 -11 -3 -15 5 -10 6 3 14 1 18 -5 5 -8 3 -9 -6
-4 -10 6 -12 4 -7 -9 4 -10 7 -20 7 -22 0 -3 4 -2 10 1 6 3 7 -1 4 -9 -3 -9
-1 -16 6 -16 6 0 8 -4 5 -10 -3 -5 -1 -10 4 -10 6 0 10 -3 10 -7 -3 -21 2 -33
13 -27 7 5 8 3 4 -5 -5 -7 0 -19 10 -27 11 -9 13 -13 7 -9 -15 7 -17 -4 -3
-25 8 -13 10 -12 15 1 3 9 -26 83 -70 175 -42 87 -99 207 -127 265 -27 58 -56
106 -63 106 -7 0 -11 -6 -8 -14 3 -7 9 -10 14 -7 5 3 6 -2 3 -10 -3 -9 -1 -16
5 -16 6 0 8 -7 4 -15 -3 -10 0 -15 8 -13 9 2 13 -4 11 -14 -2 -10 2 -18 7 -18
6 0 8 -7 5 -15 -4 -8 -1 -15 6 -15 6 0 8 -4 5 -10 -3 -5 -1 -10 4 -10 6 0 10
-3 10 -7 -3 -20 2 -34 11 -28 6 3 7 -1 4 -9 -3 -9 -1 -16 6 -16 6 0 8 -5 4
-12 -5 -7 -3 -8 6 -3 9 6 11 4 5 -5 -4 -7 -2 -16 6 -21 12 -7 11 -9 -1 -9 -10
0 -49 70 -112 203 -54 111 -161 335 -238 497 -78 162 -144 298 -148 301 -4 4
-67 -118 -139 -270z"/>
<path d="M3037 5243 c-11 -10 -8 -25 3 -18 5 3 7 0 4 -8 -6 -17 51 -137 66
-137 5 0 7 -7 4 -15 -4 -8 -1 -15 5 -15 6 0 10 -3 9 -7 -4 -15 13 -53 23 -53
6 0 7 -4 4 -10 -3 -5 -1 -10 5 -10 6 0 9 -4 5 -9 -3 -5 1 -15 8 -23 8 -7 12
-19 9 -27 -3 -9 0 -11 8 -6 8 5 11 4 6 -3 -8 -13 44 -123 56 -116 4 3 5 -2 2
-10 -3 -9 -1 -16 6 -16 6 0 8 -4 5 -10 -3 -5 -1 -10 5 -10 6 0 9 -4 5 -9 -3
-5 2 -17 11 -25 8 -9 12 -16 8 -16 -4 0 1 -7 12 -16 10 -8 13 -13 7 -9 -16 8
-16 3 -2 -29 7 -14 16 -23 20 -20 5 3 6 -2 3 -10 -3 -9 -1 -16 5 -16 6 0 10
-3 10 -7 -3 -20 2 -34 11 -28 6 3 7 -1 4 -9 -4 -11 0 -16 10 -16 9 0 16 2 16
4 0 15 -53 101 -60 99 -5 -2 -7 3 -4 10 7 19 -66 168 -79 160 -6 -4 -8 0 -4
10 4 10 -15 59 -47 124 -29 60 -72 151 -96 203 -49 106 -53 113 -63 103z"/>
<path d="M2550 4416 c-4 -12 -42 -92 -84 -179 -42 -87 -76 -161 -76 -163 0 -3
6 -2 13 1 6 4 4 0 -6 -8 -15 -13 -147 -267 -147 -284 0 -2 6 -1 13 2 6 4 4 0
-5 -8 -15 -12 -92 -163 -252 -499 -50 -106 -52 -112 -33 -103 6 4 2 -2 -10
-12 -28 -23 -157 -299 -147 -314 4 -8 3 -9 -4 -5 -6 3 -16 -2 -21 -13 -15 -26
-14 -31 5 -31 10 0 14 5 10 16 -3 8 -2 13 3 10 11 -7 33 43 25 56 -4 6 -2 8 4
4 13 -8 21 5 24 38 1 14 6 26 11 26 4 0 5 5 2 10 -3 6 -2 10 4 10 10 0 27 38
23 53 -1 4 3 7 9 7 5 0 7 5 4 10 -3 6 -1 10 5 10 7 0 9 7 6 16 -3 8 -2 13 3
10 11 -7 23 22 14 36 -3 6 -2 8 4 5 13 -8 44 59 36 79 -4 12 -3 15 5 10 11 -6
17 5 13 27 0 4 4 7 10 7 5 0 7 5 4 10 -3 6 -1 10 5 10 7 0 9 7 6 16 -3 8 -2
12 4 9 9 -6 14 8 11 28 0 4 4 7 10 7 6 0 8 7 5 16 -3 8 -2 13 3 10 9 -6 98
181 94 196 -2 4 2 8 8 8 6 0 8 7 5 16 -4 9 -2 13 5 8 8 -4 9 1 4 16 -5 15 -4
20 4 16 7 -5 8 -1 4 10 -5 13 -3 15 7 9 9 -5 11 -4 6 3 -4 7 -2 12 5 12 7 0
10 3 6 6 -3 4 1 13 9 21 8 8 12 19 9 24 -4 5 -1 9 5 9 6 0 9 4 6 9 -4 5 -2 11
3 13 15 5 72 128 65 140 -4 6 -3 8 3 5 10 -6 29 37 25 56 -1 4 3 7 10 7 6 0 9
3 5 6 -3 4 1 13 9 21 8 8 12 19 9 24 -4 5 -1 9 5 9 6 0 8 5 5 10 -3 6 -1 10 5
10 7 0 9 7 6 16 -3 8 -2 13 2 10 5 -3 20 20 35 50 31 62 32 68 15 59 -7 -4 -5
0 6 9 10 8 15 20 10 27 -4 8 -3 10 4 5 11 -6 16 6 13 27 0 4 3 7 9 7 5 0 6 7
3 17 -4 10 -2 14 4 10 10 -6 48 61 39 70 -3 3 4 15 15 26 11 12 17 27 15 34
-3 7 -1 13 5 13 6 0 8 4 5 9 -3 5 1 11 9 15 20 7 19 23 -1 23 -9 0 -19 -10
-24 -21z"/>
<path d="M3646 3962 c-8 -13 24 -83 35 -77 4 3 5 -4 2 -15 -3 -12 1 -22 11
-26 9 -3 14 -10 11 -14 -3 -5 1 -15 9 -23 8 -8 12 -17 9 -21 -4 -3 -1 -6 5 -6
7 0 11 -3 10 -7 -3 -17 15 -62 23 -57 5 3 6 -2 3 -10 -3 -9 -1 -16 5 -16 6 0
10 -3 9 -7 -5 -18 14 -53 24 -47 7 5 9 1 5 -9 -3 -10 -3 -17 2 -17 4 0 8 -7 8
-15 0 -26 46 -115 56 -108 6 3 7 1 3 -5 -7 -12 19 -72 36 -83 5 -3 9 -10 9
-15 -1 -18 11 -44 20 -44 6 0 8 -4 4 -9 -8 -14 27 -81 38 -74 6 3 7 1 4 -5 -9
-14 3 -43 14 -36 5 3 6 -2 3 -10 -3 -9 -1 -16 6 -16 6 0 8 -4 5 -10 -3 -5 -1
-10 4 -10 6 0 10 -3 9 -7 -4 -15 13 -53 23 -53 6 0 7 -4 4 -10 -3 -5 -1 -10 6
-10 7 0 10 -3 7 -6 -11 -11 8 -57 25 -60 9 -1 17 -1 17 1 0 2 -170 360 -331
693 -38 79 -69 148 -69 153 0 6 -12 22 -27 36 -16 15 -22 23 -15 19 16 -9 15
5 -1 29 -9 12 -16 14 -21 7z"/>
<path d="M195 3850 c-4 -6 -1 -9 6 -8 7 2 14 -3 15 -9 1 -7 2 -14 3 -15 6 -9
7 -76 1 -73 -22 14 -16 -77 10 -145 5 -14 14 -44 20 -68 7 -27 15 -40 22 -36
7 5 9 0 5 -15 -3 -12 -2 -36 3 -54 4 -17 11 -45 15 -61 5 -23 8 -27 16 -15 5
7 9 21 9 29 0 13 -1 13 -11 0 -8 -11 -9 -6 -4 20 4 23 3 30 -3 21 -7 -9 -9 -1
-9 25 1 22 -6 54 -15 72 -12 24 -13 32 -4 32 7 0 18 -19 24 -42 5 -24 20 -77
31 -118 11 -41 21 -75 21 -76 0 0 -7 -1 -15 -1 -8 0 -12 4 -9 9 3 4 0 8 -6 8
-13 0 -8 -33 20 -120 10 -30 21 -70 25 -89 5 -24 10 -30 16 -20 7 12 9 12 9 0
0 -8 3 -12 6 -8 3 3 3 15 -1 28 -6 17 -9 19 -17 8 -6 -9 -7 -3 -3 21 5 28 4
32 -5 20 -10 -12 -11 -11 -6 9 6 31 -4 82 -15 75 -5 -3 -6 3 -2 12 4 10 2 15
-4 11 -5 -3 -10 0 -10 8 0 33 26 12 35 -27 6 -24 20 -77 31 -118 11 -41 18
-76 16 -79 -3 -2 -5 1 -5 7 0 7 -7 12 -16 12 -18 0 -15 -24 16 -120 10 -30 21
-69 24 -87 6 -26 10 -30 20 -20 8 6 11 18 8 25 -4 11 -6 11 -14 0 -6 -8 -7 -1
-3 22 5 27 4 32 -5 20 -9 -12 -10 -7 -5 20 5 27 4 32 -5 20 -9 -12 -10 -10 -5
9 5 15 3 21 -3 17 -7 -4 -9 3 -6 20 3 14 1 23 -4 20 -5 -3 -9 1 -9 9 0 8 5 15
11 15 7 0 25 -48 41 -107 30 -113 35 -133 28 -120 -3 4 -12 7 -20 7 -16 0 -16
-3 8 -95 9 -33 12 -37 21 -21 7 12 7 21 0 28 -6 6 -8 17 -5 25 3 8 0 19 -8 24
-12 7 -12 9 1 9 14 0 77 -205 166 -540 8 -30 17 -62 19 -71 3 -9 -1 -16 -9
-16 -9 0 -13 4 -10 9 3 4 0 8 -6 8 -13 0 -7 -33 21 -124 11 -32 19 -65 19 -72
0 -7 6 -33 14 -56 8 -24 19 -61 25 -84 7 -25 17 -41 26 -41 11 0 13 6 9 21 -4
12 -10 22 -15 24 -4 2 -5 10 -2 19 4 10 2 14 -4 10 -5 -3 -10 0 -10 7 0 7 6
13 14 13 11 0 24 -40 28 -87 0 -9 5 -21 9 -29 11 -17 36 -114 32 -119 -3 -2
-7 6 -11 19 -6 17 -9 19 -16 8 -7 -11 -9 -10 -9 4 0 9 4 17 10 17 5 0 7 7 4
15 -4 8 -10 13 -14 10 -5 -3 -7 6 -4 21 3 18 1 23 -7 18 -8 -5 -10 -3 -4 7 6
10 5 11 -3 4 -9 -8 -7 -29 7 -80 11 -39 24 -89 31 -112 6 -26 17 -43 25 -43 8
0 15 5 15 11 0 5 -4 8 -9 5 -5 -4 -7 3 -4 14 3 11 0 20 -6 20 -6 0 -8 7 -4 17
4 10 2 14 -4 10 -5 -3 -10 0 -10 8 0 34 26 11 36 -32 7 -27 55 -200 107 -385
52 -185 94 -340 94 -344 0 -4 -6 1 -14 12 -27 36 -28 -7 -1 -95 14 -47 25 -86
25 -88 0 -2 7 -3 15 -3 8 0 14 -6 13 -12 -4 -16 2 -15 72 5 30 8 68 18 84 22
23 5 27 8 15 16 -12 7 -12 9 0 9 8 0 12 2 10 5 -3 2 -16 1 -29 -2 -22 -6 -23
-7 -4 -15 13 -6 6 -7 -21 -3 -30 3 -36 2 -25 -6 12 -8 8 -9 -14 -6 -38 6 -64
-2 -44 -14 9 -6 6 -9 -10 -9 -13 0 -20 4 -17 10 4 6 3 10 -2 9 -22 -4 -32 2
-26 17 3 9 0 20 -8 25 -11 7 -11 9 4 9 11 0 17 -8 17 -21 0 -25 7 -24 148 15
98 27 127 32 103 17 -11 -7 -10 -10 5 -15 10 -3 1 -3 -21 -1 -28 3 -35 2 -25
-5 13 -8 12 -10 -4 -10 -11 0 -17 -2 -14 -5 3 -3 36 2 74 10 38 8 105 23 149
32 64 14 75 18 55 24 -37 11 -59 9 -35 -2 15 -7 8 -8 -25 -5 -31 4 -39 2 -25
-4 18 -8 18 -9 -6 -9 -15 -1 -26 4 -26 12 0 15 265 69 344 71 24 1 43 4 43 9
0 4 12 7 28 6 24 0 24 -1 7 -8 -19 -8 -18 -9 5 -14 14 -3 -4 -4 -40 -2 -46 2
-58 1 -40 -6 19 -6 14 -7 -20 -4 -36 3 -40 2 -20 -5 19 -8 12 -9 -30 -6 -39 3
-49 2 -35 -5 14 -7 6 -8 -30 -5 -36 3 -45 2 -30 -5 15 -7 10 -8 -20 -4 -32 4
-36 3 -17 -5 16 -7 52 -5 115 6 51 8 142 22 202 29 61 8 146 19 190 25 65 8
232 23 359 31 30 2 -82 17 -124 17 -32 -1 -31 -2 10 -9 31 -5 11 -7 -65 -5
-66 2 -94 0 -70 -4 39 -7 38 -7 -17 -9 -46 -1 -58 2 -58 14 0 10 10 15 27 15
15 0 89 5 165 11 113 9 142 8 155 -3 14 -11 15 -11 9 0 -6 11 0 13 25 11 19
-1 41 1 49 5 9 4 109 10 224 14 l208 7 -284 291 c-155 160 -672 691 -1148
1180 -476 489 -966 991 -1089 1116 -124 126 -220 231 -216 237 8 13 16 14 12
2 -3 -13 231 -249 240 -242 3 3 3 0 -2 -8 -6 -10 -4 -12 5 -6 9 6 11 4 5 -5
-6 -9 -4 -11 5 -5 9 6 11 4 5 -5 -6 -9 -4 -11 5 -5 9 6 11 4 5 -5 -6 -9 -4
-11 5 -5 9 6 11 4 5 -5 -6 -9 -4 -11 5 -5 9 6 11 4 5 -5 -6 -9 -4 -11 5 -5 9
6 11 4 5 -5 -6 -9 -4 -11 5 -5 9 6 11 4 5 -5 -6 -9 -4 -11 5 -5 9 6 11 4 5 -5
-6 -9 -4 -11 5 -5 9 6 11 4 5 -5 -6 -9 -4 -11 5 -5 9 6 11 4 5 -5 -6 -9 -4
-11 5 -5 9 6 11 4 5 -5 -6 -9 -4 -11 5 -5 9 6 11 4 5 -5 -6 -9 -4 -11 5 -5 9
6 11 4 5 -5 -6 -9 -4 -11 5 -5 9 6 11 4 5 -5 -6 -9 -4 -11 5 -5 9 6 11 4 5 -5
-6 -9 -4 -11 5 -5 9 6 11 4 5 -5 -6 -9 -4 -11 5 -5 9 6 11 4 5 -5 -6 -9 -4
-11 5 -5 9 6 11 4 5 -5 -6 -9 -4 -11 5 -5 9 6 11 4 5 -5 -6 -9 -4 -11 5 -5 9
6 11 4 5 -5 -5 -9 -4 -11 4 -6 6 4 10 3 9 -2 -2 -5 44 -56 102 -113 57 -57
104 -107 103 -111 -2 -3 90 -95 202 -203 113 -109 202 -202 198 -208 -4 -6 -1
-7 7 -2 9 5 11 4 6 -4 -5 -7 -2 -10 6 -9 7 2 12 -2 11 -8 -1 -6 49 -61 111
-122 62 -62 110 -115 107 -119 -3 -3 0 -3 8 2 10 6 12 4 6 -5 -6 -9 -4 -11 5
-5 9 6 11 4 5 -5 -6 -9 -4 -11 5 -5 9 6 11 4 5 -5 -6 -9 -4 -11 5 -5 9 6 11 4
5 -5 -6 -9 -4 -11 5 -5 9 6 11 4 5 -5 -6 -9 -4 -11 5 -5 9 6 11 4 5 -5 -6 -9
-4 -11 5 -5 9 6 11 4 5 -5 -6 -9 -4 -11 5 -5 9 6 11 4 5 -5 -6 -9 -4 -11 5 -5
9 6 11 4 5 -5 -6 -9 -4 -11 5 -5 9 6 11 4 5 -5 -6 -9 -4 -11 5 -5 9 6 11 4 5
-5 -6 -9 -4 -11 5 -5 9 6 11 4 5 -5 -6 -9 -4 -11 5 -5 9 6 11 4 5 -5 -6 -9 -4
-11 5 -5 9 6 11 4 5 -5 -6 -9 -4 -11 5 -5 9 6 11 4 5 -5 -6 -9 -4 -11 5 -5 9
6 11 4 5 -5 -6 -9 -4 -11 5 -5 9 6 11 4 5 -5 -6 -9 -4 -11 5 -5 9 6 11 4 5 -5
-6 -9 -4 -11 5 -5 9 6 11 4 5 -5 -6 -9 -4 -11 5 -5 9 6 11 4 5 -5 -5 -9 -4
-11 4 -6 6 4 10 3 9 -2 -4 -13 220 -241 229 -233 3 3 3 0 -2 -8 -6 -10 -4 -12
5 -6 9 6 11 4 5 -5 -6 -9 -4 -11 5 -5 9 6 11 4 5 -5 -6 -9 -4 -11 5 -5 9 6 11
4 5 -5 -6 -9 -4 -11 5 -5 9 6 11 4 5 -5 -6 -9 -4 -11 5 -5 9 6 11 4 5 -5 -6
-9 -4 -11 5 -5 9 6 11 4 5 -5 -6 -9 -4 -11 5 -5 9 6 11 4 5 -5 -6 -9 -4 -11 5
-5 9 6 11 4 5 -5 -6 -9 -4 -11 5 -5 9 6 11 4 5 -5 -6 -9 -4 -11 5 -5 9 6 11 4
5 -5 -6 -9 -4 -11 5 -5 9 6 11 4 5 -5 -6 -9 -4 -11 5 -5 9 6 11 4 5 -5 -6 -9
-4 -11 5 -5 9 6 11 4 5 -5 -6 -9 -4 -11 5 -5 9 6 11 4 5 -5 -6 -9 -4 -11 5 -5
9 6 11 4 5 -5 -6 -9 -4 -11 5 -5 9 6 11 4 5 -5 -6 -9 -4 -11 5 -5 9 6 11 4 5
-5 -6 -9 -4 -11 5 -5 9 6 11 4 5 -5 -5 -9 -4 -11 4 -6 6 4 10 4 9 -1 -1 -4 48
-57 110 -117 62 -61 112 -115 112 -121 0 -6 51 -61 113 -123 63 -62 111 -115
108 -119 -3 -3 0 -3 8 2 10 6 12 4 6 -5 -6 -9 -4 -11 5 -5 9 6 11 4 5 -5 -6
-9 -4 -11 5 -5 9 6 11 4 5 -5 -6 -9 -4 -11 5 -5 9 6 11 4 5 -5 -6 -9 -4 -11 5
-5 9 6 11 4 5 -5 -6 -9 -4 -11 5 -5 9 6 11 4 5 -5 -6 -9 -4 -11 5 -5 9 6 11 4
5 -5 -6 -9 -4 -11 5 -5 9 6 11 4 5 -5 -6 -9 -4 -11 5 -5 9 6 11 4 5 -5 -6 -9
-4 -11 5 -5 9 6 11 4 5 -5 -6 -9 -4 -11 5 -5 9 6 11 4 5 -5 -6 -9 -4 -11 5 -5
9 6 11 4 5 -5 -6 -9 -4 -11 5 -5 9 6 11 4 5 -5 -6 -9 -4 -11 5 -5 9 6 11 4 5
-5 -6 -9 -4 -11 5 -5 9 6 11 4 5 -5 -6 -9 -4 -11 5 -5 9 6 11 4 5 -5 -5 -8 -4
-11 2 -7 10 6 48 -27 48 -42 0 -3 4 -5 8 -3 5 1 6 -1 3 -6 -5 -9 136 -155 145
-150 2 2 2 0 -1 -4 -3 -3 -16 -8 -30 -11 -14 -3 -6 -4 18 -4 23 1 41 4 40 8
-3 7 -195 206 -1028 1059 -239 245 -574 590 -745 765 -277 286 -477 491 -914
938 -74 75 -136 137 -137 137 -2 0 -6 -5 -9 -10z"/>
<path d="M5594 3658 c-210 -214 -491 -502 -839 -859 -1200 -1231 -1500 -1541
-1503 -1552 -1 -7 17 -33 40 -58 24 -25 84 -91 133 -147 50 -55 97 -100 105
-100 10 0 11 1 2 5 -6 2 -9 10 -6 15 5 7 2 8 -6 3 -9 -6 -11 -4 -5 5 6 9 4 11
-5 5 -9 -6 -11 -4 -5 5 6 9 4 11 -5 5 -9 -6 -11 -4 -5 5 5 9 4 11 -4 6 -6 -4
-10 -4 -9 1 2 5 -14 24 -34 42 -21 18 -38 39 -38 46 0 7 -15 26 -34 43 -19 17
-32 34 -28 38 4 4 1 4 -7 -1 -10 -6 -12 -4 -6 5 6 9 4 11 -5 5 -9 -6 -11 -4
-5 5 6 9 4 11 -5 5 -9 -5 -11 -4 -6 4 5 7 2 10 -5 9 -7 -2 -14 4 -14 12 0 8
-6 14 -12 13 -28 -6 7 42 98 133 54 54 99 103 99 109 0 6 48 58 107 116 59 57
106 108 105 112 -1 5 3 5 9 1 8 -5 9 -3 4 6 -6 9 -4 11 5 5 9 -6 11 -4 5 5 -6
9 -4 11 5 5 9 -6 11 -4 5 5 -6 9 -4 11 5 5 9 -6 11 -4 5 5 -6 9 -4 11 5 5 9
-6 11 -4 5 5 -6 9 -4 11 5 5 9 -6 11 -4 5 5 -6 9 -4 11 5 5 9 -6 11 -4 5 5 -6
9 -4 11 5 5 9 -6 11 -4 5 5 -6 9 -4 11 5 5 9 -6 11 -4 5 5 -6 9 -4 11 5 5 9
-6 11 -4 5 5 -6 9 -4 11 5 5 9 -6 11 -4 5 5 -6 9 -4 11 5 5 9 -6 11 -4 5 5 -6
9 -4 11 5 5 9 -6 11 -4 5 5 -6 9 -4 11 5 5 9 -6 11 -4 5 5 -6 9 -4 11 5 5 9
-6 11 -4 5 5 -6 9 -4 11 5 5 9 -6 11 -4 5 5 -6 9 -4 11 5 5 9 -6 11 -4 5 5 -6
9 -4 11 5 5 9 -6 11 -4 5 5 -6 9 -4 11 5 5 9 -6 11 -4 5 5 -6 9 -4 11 6 5 8
-5 11 -5 8 -2 -3 4 43 55 102 114 60 58 106 110 103 115 -3 5 0 7 8 6 7 -2 12
3 10 10 -1 8 2 11 9 6 8 -5 9 -3 4 6 -6 9 -4 11 5 5 9 -6 11 -4 5 5 -6 9 -4
11 5 5 9 -6 11 -4 5 5 -6 9 -4 11 5 5 9 -6 11 -4 5 5 -6 9 -4 11 5 5 9 -6 11
-4 5 5 -6 9 -4 11 5 5 9 -6 11 -4 5 5 -6 9 -4 11 5 5 9 -6 11 -4 5 5 -6 9 -4
11 5 5 9 -6 11 -4 5 5 -6 9 -4 11 5 5 9 -6 11 -4 5 5 -6 9 -4 11 5 5 9 -6 11
-4 5 5 -6 9 -4 11 5 5 9 -6 11 -4 5 5 -6 9 -4 11 5 5 9 -6 11 -4 5 5 -6 9 -4
11 5 5 9 -6 11 -4 5 5 -6 9 -4 11 5 5 9 -6 11 -4 5 5 -6 9 -4 11 5 5 9 -6 11
-4 5 5 -6 9 -4 11 5 5 9 -6 11 -4 5 5 -6 9 -4 11 5 5 9 -6 11 -4 5 5 -6 9 -4
11 5 5 9 -6 11 -4 5 5 -6 9 -4 11 5 5 9 -6 11 -4 5 5 -6 9 -4 11 6 5 8 -5 11
-5 8 -2 -3 4 45 57 107 119 62 61 110 116 107 121 -4 6 -1 7 7 2 9 -6 11 -4 5
5 -6 9 -4 11 5 5 9 -6 11 -4 5 5 -6 9 -4 11 5 5 8 -5 11 -4 7 2 -3 5 37 52 89
104 51 51 94 91 94 88 0 -3 48 43 108 103 59 61 106 114 105 119 -2 5 2 9 8 9
5 0 7 5 4 10 -3 6 -1 10 5 10 17 0 201 186 192 194 -4 4 0 6 8 4 8 -2 14 3 12
10 -1 8 2 11 9 6 8 -5 9 -3 4 6 -6 9 -4 11 5 5 9 -6 11 -4 5 5 -6 9 -4 11 5 5
9 -6 11 -4 5 5 -6 9 -4 11 5 5 9 -6 11 -4 5 5 -6 9 -4 11 5 5 9 -6 11 -4 5 5
-6 9 -4 11 5 5 9 -6 11 -4 5 5 -6 9 -4 11 5 5 9 -6 11 -4 5 5 -6 9 -4 11 5 5
9 -6 11 -4 5 5 -6 9 -4 11 5 5 9 -6 11 -4 5 5 -6 9 -4 11 5 5 9 -6 11 -4 5 5
-6 9 -4 11 5 5 9 -6 11 -4 5 5 -6 9 -4 11 5 5 9 -6 11 -4 5 5 -6 9 -4 11 5 5
9 -6 11 -4 5 5 -6 9 -4 11 5 5 9 -6 11 -4 5 5 -6 9 -4 11 5 5 9 -6 11 -4 5 5
-6 9 -4 11 5 5 9 -6 11 -4 5 5 -6 9 -4 11 5 5 9 -6 11 -4 5 5 -6 9 -4 11 5 5
9 -6 11 -4 5 5 -6 9 -4 11 5 5 9 -6 11 -4 5 5 -6 9 -4 11 6 5 8 -5 11 -5 8 -2
-3 4 47 60 112 124 65 64 115 121 112 126 -4 6 -1 7 7 2 9 -6 11 -4 5 5 -6 9
-4 11 5 5 9 -6 11 -4 5 5 -6 9 -4 11 5 5 9 -6 11 -4 5 5 -6 9 -4 11 5 5 9 -6
11 -4 5 5 -6 9 -4 11 5 5 9 -6 11 -4 5 5 -6 9 -4 11 5 5 9 -6 11 -4 5 5 -6 9
-4 11 5 5 9 -6 11 -4 5 5 -6 9 -4 11 5 5 9 -6 11 -4 5 5 -6 9 -4 11 5 5 9 -6
11 -4 5 5 -6 9 -4 11 5 5 9 -6 11 -4 5 5 -6 9 -4 11 5 5 9 -6 11 -4 5 5 -6 9
-4 11 5 5 9 -6 11 -4 5 5 -5 9 -4 11 4 6 16 -10 25 0 -1424 -1486 -363 -372
-747 -766 -853 -877 l-193 -202 98 -107 c54 -60 114 -125 133 -146 l35 -37
141 -10 c77 -6 152 -11 167 -11 17 0 27 -5 27 -15 0 -12 -13 -15 -62 -14 -56
2 -59 3 -23 8 l40 7 -37 5 c-21 3 -38 1 -38 -3 0 -10 -77 -10 -161 -1 l-64 8
45 6 45 6 -40 1 c-22 1 -47 -2 -54 -7 -22 -14 8 -19 209 -36 189 -16 422 -45
564 -69 88 -15 141 -13 130 6 -14 22 269 -45 303 -72 14 -11 20 -20 13 -20
-26 0 -2 -11 66 -30 38 -10 78 -22 89 -25 16 -6 17 -5 5 4 -13 9 -13 11 3 11
9 0 17 5 17 11 0 5 4 8 8 5 5 -3 21 38 36 92 22 79 26 102 17 122 -10 22 -11
23 -7 2 2 -12 0 -22 -6 -22 -6 0 -8 -9 -5 -20 3 -11 1 -20 -5 -20 -6 0 -8 -8
-6 -18 3 -10 -1 -24 -9 -31 -8 -7 -12 -22 -10 -32 3 -11 1 -19 -5 -19 -6 0 -8
-8 -6 -18 5 -18 -15 -45 -26 -35 -3 4 -6 1 -6 -5 0 -7 -8 -12 -17 -12 -16 0
-16 2 -3 10 11 8 7 9 -15 5 -25 -4 -26 -4 -10 5 16 7 11 9 -20 5 -22 -2 -31
-2 -21 1 15 5 16 8 5 16 -10 7 -5 7 16 2 76 -18 74 -20 110 106 52 183 143
512 151 543 3 16 13 27 23 27 13 0 13 -2 2 -9 -8 -5 -11 -16 -8 -25 4 -9 1
-16 -4 -16 -6 0 -9 -9 -6 -20 3 -11 0 -20 -6 -20 -7 0 -5 -5 3 -10 13 -8 12
-10 -4 -10 -13 0 -17 -5 -13 -20 3 -11 1 -23 -4 -26 -5 -3 -7 -16 -5 -30 3
-14 1 -22 -5 -18 -6 3 -8 -5 -4 -23 4 -24 4 -25 -5 -8 -10 19 -10 19 -6 -3 2
-12 0 -22 -6 -22 -6 0 -8 -9 -5 -20 3 -11 1 -20 -5 -20 -6 0 -8 -8 -6 -18 3
-10 -1 -24 -9 -31 -8 -7 -12 -22 -10 -32 3 -11 1 -19 -5 -19 -6 0 -8 -9 -5
-20 3 -10 0 -21 -6 -23 -9 -3 -9 -10 -1 -28 10 -23 11 -23 17 -4 39 136 157
565 159 580 2 11 -1 20 -7 20 -5 0 -10 -10 -9 -22 1 -12 -3 -20 -8 -17 -5 3
-7 -6 -4 -20 3 -17 1 -24 -6 -20 -6 4 -8 -2 -3 -17 4 -17 3 -20 -3 -10 -8 11
-11 11 -16 0 -8 -19 -2 7 30 128 20 76 31 103 43 103 13 0 14 -2 2 -9 -8 -5
-11 -16 -8 -24 3 -9 1 -17 -5 -19 -6 -2 -8 -13 -3 -27 4 -12 9 -20 11 -18 10
10 63 221 58 229 -10 16 -24 -3 -20 -28 3 -14 1 -22 -5 -18 -6 3 -7 -8 -4 -28
4 -26 3 -30 -6 -18 -9 12 -10 11 -6 -6 3 -13 -1 -21 -10 -21 -7 0 -11 7 -9 16
3 9 23 84 46 166 23 83 50 179 60 215 34 116 108 384 121 433 8 32 17 47 28
47 13 0 13 -2 2 -9 -8 -5 -11 -16 -8 -25 4 -9 1 -16 -4 -16 -6 0 -9 -9 -6 -20
3 -11 1 -18 -4 -14 -5 3 -9 0 -9 -5 0 -6 6 -11 14 -11 14 0 83 226 73 237 -12
12 -27 -10 -23 -33 3 -13 1 -22 -4 -19 -4 3 -10 -2 -14 -10 -3 -8 -1 -15 4
-15 6 0 10 -8 9 -17 0 -13 -2 -14 -6 -4 -4 10 -9 8 -20 -10 -16 -28 -17 -34
23 119 15 56 33 102 39 102 6 0 12 -7 12 -15 0 -8 -5 -11 -10 -8 -6 4 -8 0 -4
-10 3 -9 1 -17 -5 -19 -7 -3 -8 -13 -3 -28 8 -24 8 -24 20 10 25 72 28 100 11
100 -9 0 -16 -5 -16 -12 0 -6 -3 -9 -6 -6 -5 5 40 171 106 398 11 36 22 78 26
93 4 16 13 31 20 34 8 3 14 9 14 15 0 5 -5 6 -11 2 -8 -4 -9 1 -4 17 9 27 17
57 41 152 12 43 23 67 32 67 11 0 12 -3 3 -14 -7 -8 -9 -27 -6 -43 4 -23 4
-24 -4 -8 -5 11 -10 15 -10 8 -1 -6 -3 -18 -6 -26 -4 -8 0 -14 10 -14 9 0 19
16 26 41 6 23 16 59 24 81 22 68 27 103 16 110 -7 4 -9 -1 -5 -12 5 -15 4 -16
-5 -3 -9 12 -11 13 -11 1 0 -8 -3 -12 -6 -8 -3 3 -2 12 2 19 5 7 9 29 10 48 1
19 3 36 4 38 2 1 3 8 4 15 1 6 8 11 15 9 7 -1 10 2 6 8 -3 5 -8 10 -9 10 -2 0
-93 -91 -202 -202z"/>
<path d="M4203 2766 c2 -6 -17 -27 -42 -47 -44 -35 -99 -89 -90 -89 2 0 -56
-61 -130 -137 -73 -76 -137 -148 -142 -161 -5 -13 -14 -20 -19 -17 -6 4 -9 2
-8 -3 2 -5 -31 -42 -72 -83 -93 -92 -136 -140 -133 -151 2 -4 -3 -8 -10 -8
-14 0 -349 -352 -356 -373 -2 -7 -48 -56 -103 -109 l-99 -97 -113 112 c-62 62
-115 118 -117 124 -8 24 -421 453 -435 453 -8 0 -12 5 -9 10 3 6 1 10 -5 10
-6 0 -9 4 -6 9 3 5 -16 29 -43 54 -27 25 -46 49 -42 54 3 4 2 5 -3 0 -11 -8
-76 50 -76 69 0 6 -22 32 -50 58 -27 25 -49 49 -49 52 0 13 -259 276 -264 267
-3 -5 53 -72 126 -149 116 -124 619 -659 709 -755 18 -19 109 -117 202 -217
93 -100 172 -182 175 -182 3 0 76 75 161 167 85 92 270 289 410 438 495 526
645 688 652 700 4 7 1 12 -8 12 -8 0 -13 -5 -11 -11z"/>
</g>
</svg>
